<svg width="126" height="35" viewBox="0 0 126 35" fill="none" xmlns="http://www.w3.org/2000/svg">
<circle cx="17.5" cy="17.5" r="17.5" fill="#DBFE2F"/>
<path d="M13.1 20.1H19.26C19.4067 20.1 19.5333 20.1533 19.64 20.26C19.7467 20.3667 19.8 20.4933 19.8 20.64V23.46C19.8 23.6067 19.7467 23.7333 19.64 23.84C19.5333 23.9467 19.4067 24 19.26 24H8.84C8.69333 24 8.56667 23.9467 8.46 23.84C8.35333 23.7333 8.3 23.6067 8.3 23.46V10.54C8.3 10.3933 8.35333 10.2667 8.46 10.16C8.56667 10.0533 8.69333 10 8.84 10H19.1C19.2467 10 19.3733 10.0533 19.48 10.16C19.5867 10.2667 19.64 10.3933 19.64 10.54V13.36C19.64 13.5067 19.5867 13.6333 19.48 13.74C19.3733 13.8467 19.2467 13.9 19.1 13.9H13.1V15.16H18.66C18.8067 15.16 18.9333 15.2133 19.04 15.32C19.1467 15.4267 19.2 15.5533 19.2 15.7V18.3C19.2 18.4467 19.1467 18.5733 19.04 18.68C18.9333 18.7867 18.8067 18.84 18.66 18.84H13.1V20.1ZM33.6863 17.94V23.46C33.6863 23.6067 33.6329 23.7333 33.5263 23.84C33.4196 23.9467 33.2929 24 33.1463 24H29.3263C29.1796 24 29.0529 23.9467 28.9463 23.84C28.8396 23.7333 28.7863 23.6067 28.7863 23.46V18.08C28.7863 17.3467 28.4529 16.98 27.7863 16.98C27.1196 16.98 26.7862 17.3467 26.7862 18.08V23.46C26.7862 23.6067 26.7329 23.7333 26.6263 23.84C26.5196 23.9467 26.3929 24 26.2463 24H22.4463C22.2996 24 22.1729 23.9467 22.0663 23.84C21.9596 23.7333 21.9063 23.6067 21.9063 23.46V14.14C21.9063 13.9933 21.9596 13.8667 22.0663 13.76C22.1729 13.6533 22.2996 13.6 22.4463 13.6H25.9463C26.0929 13.6 26.2196 13.6533 26.3263 13.76C26.4329 13.8667 26.4863 13.9933 26.4863 14.14V14.8C26.8329 14.3867 27.2996 14.0533 27.8863 13.8C28.4863 13.5333 29.1263 13.4 29.8063 13.4C30.8996 13.4 31.8196 13.7867 32.5663 14.56C33.3129 15.32 33.6863 16.4467 33.6863 17.94Z" fill="#151412"/>
<path d="M41.5781 17.1V19.3C41.5781 19.9667 41.8648 20.3 42.4381 20.3H44.2581C44.4048 20.3 44.5315 20.3533 44.6381 20.46C44.7448 20.5667 44.7981 20.6933 44.7981 20.84V23.46C44.7981 23.6067 44.7448 23.7333 44.6381 23.84C44.5315 23.9467 44.4048 24 44.2581 24H41.9981C38.6648 24 36.9981 22.5667 36.9981 19.7V17.1H35.4181C35.2715 17.1 35.1448 17.0467 35.0381 16.94C34.9315 16.8333 34.8781 16.7067 34.8781 16.56V14.14C34.8781 13.9933 34.9315 13.8667 35.0381 13.76C35.1448 13.6533 35.2715 13.6 35.4181 13.6H36.9981V10.34C36.9981 10.1933 37.0515 10.0667 37.1581 9.96C37.2648 9.85333 37.3915 9.8 37.5381 9.8H41.0381C41.1848 9.8 41.3115 9.85333 41.4181 9.96C41.5248 10.0667 41.5781 10.1933 41.5781 10.34V13.6H44.0981C44.2448 13.6 44.3715 13.6533 44.4781 13.76C44.5848 13.8667 44.6381 13.9933 44.6381 14.14V16.56C44.6381 16.7067 44.5848 16.8333 44.4781 16.94C44.3715 17.0467 44.2448 17.1 44.0981 17.1H41.5781ZM53.0431 13.6H54.9031C55.2631 13.6 55.4898 13.76 55.5831 14.08L56.8831 18.24L58.1031 14.08C58.1965 13.76 58.4231 13.6 58.7831 13.6H61.8631C61.9965 13.6 62.1098 13.6467 62.2031 13.74C62.2965 13.8333 62.3431 13.9267 62.3431 14.02C62.3431 14.1133 62.3365 14.1867 62.3231 14.24L59.4031 23.5C59.2965 23.8333 59.0765 24 58.7431 24H56.0631C55.7298 24 55.5098 23.8333 55.4031 23.5L53.9831 19.46L52.5431 23.5C52.4365 23.8333 52.2165 24 51.8831 24H49.2031C48.8698 24 48.6498 23.8333 48.5431 23.5L45.6231 14.24C45.6098 14.1867 45.6031 14.1133 45.6031 14.02C45.6031 13.9267 45.6498 13.8333 45.7431 13.74C45.8365 13.6467 45.9498 13.6 46.0831 13.6H49.1631C49.5231 13.6 49.7498 13.76 49.8431 14.08L51.0631 18.24L52.3631 14.08C52.4565 13.76 52.6831 13.6 53.0431 13.6ZM67.8622 24H64.2822C64.1355 24 64.0089 23.9467 63.9022 23.84C63.7955 23.7333 63.7422 23.6067 63.7422 23.46V14.14C63.7422 13.9933 63.7955 13.8667 63.9022 13.76C64.0089 13.6533 64.1355 13.6 64.2822 13.6H67.8622C68.0089 13.6 68.1355 13.6533 68.2422 13.76C68.3489 13.8667 68.4022 13.9933 68.4022 14.14V23.46C68.4022 23.6067 68.3489 23.7333 68.2422 23.84C68.1355 23.9467 68.0089 24 67.8622 24ZM68.3022 9.74V12.16C68.3022 12.3067 68.2489 12.4333 68.1422 12.54C68.0355 12.6467 67.9089 12.7 67.7622 12.7H64.3822C64.2355 12.7 64.1089 12.6467 64.0022 12.54C63.8955 12.4333 63.8422 12.3067 63.8422 12.16V9.74C63.8422 9.59333 63.8955 9.46667 64.0022 9.36C64.1089 9.25333 64.2355 9.2 64.3822 9.2H67.7622C67.9089 9.2 68.0355 9.25333 68.1422 9.36C68.2489 9.46667 68.3022 9.59333 68.3022 9.74ZM75.0023 18.1V19.5C75.0023 19.9533 75.0623 20.28 75.1823 20.48C75.3023 20.68 75.489 20.78 75.7423 20.78C75.9957 20.78 76.169 20.74 76.2623 20.66C76.3557 20.5667 76.449 20.4 76.5423 20.16C76.649 19.9067 76.8423 19.78 77.1223 19.78H81.0223C81.169 19.78 81.2957 19.8333 81.4023 19.94C81.509 20.0467 81.5623 20.1867 81.5623 20.36C81.5623 20.5333 81.5023 20.7667 81.3823 21.06C81.2623 21.3533 81.0557 21.6867 80.7623 22.06C80.469 22.4333 80.109 22.78 79.6823 23.1C79.2557 23.4067 78.6957 23.6667 78.0023 23.88C77.309 24.0933 76.5423 24.2 75.7023 24.2C74.0357 24.2 72.6823 23.7667 71.6423 22.9C70.6157 22.02 70.1023 20.8067 70.1023 19.26V18.34C70.1023 16.7933 70.6157 15.5867 71.6423 14.72C72.6823 13.84 74.0357 13.4 75.7023 13.4C76.689 13.4 77.5823 13.5533 78.3823 13.86C79.1823 14.1533 79.7957 14.52 80.2223 14.96C80.6623 15.3867 80.9957 15.8067 81.2223 16.22C81.449 16.6333 81.5623 16.9533 81.5623 17.18C81.5623 17.3933 81.509 17.5533 81.4023 17.66C81.2957 17.7667 81.169 17.82 81.0223 17.82H77.1223C76.869 17.82 76.6757 17.6867 76.5423 17.42C76.3557 17.02 76.109 16.82 75.8023 16.82C75.269 16.82 75.0023 17.2467 75.0023 18.1ZM87.7363 10.34V16.82L89.4963 13.94C89.6296 13.7133 89.8229 13.6 90.0763 13.6H94.1163C94.2496 13.6 94.3629 13.6467 94.4563 13.74C94.5496 13.8333 94.5963 13.94 94.5963 14.06C94.5963 14.18 94.5629 14.2867 94.4963 14.38L91.7563 18.28L94.9963 23.26C95.0496 23.34 95.0763 23.44 95.0763 23.56C95.0763 23.6667 95.0296 23.7667 94.9363 23.86C94.8429 23.9533 94.7296 24 94.5963 24H90.3963C90.1296 24 89.9229 23.8867 89.7763 23.66L87.7363 20.26V23.46C87.7363 23.6067 87.6829 23.7333 87.5763 23.84C87.4696 23.9467 87.3429 24 87.1963 24H83.6963C83.5496 24 83.4229 23.9467 83.3163 23.84C83.2096 23.7333 83.1563 23.6067 83.1563 23.46V10.34C83.1563 10.1933 83.2096 10.0667 83.3163 9.96C83.4229 9.85333 83.5496 9.8 83.6963 9.8H87.1963C87.3429 9.8 87.4696 9.85333 87.5763 9.96C87.6829 10.0667 87.7363 10.1933 87.7363 10.34ZM100.401 24H96.8213C96.6746 24 96.5479 23.9467 96.4413 23.84C96.3346 23.7333 96.2813 23.6067 96.2813 23.46V10.34C96.2813 10.1933 96.3346 10.0667 96.4413 9.96C96.5479 9.85333 96.6746 9.8 96.8213 9.8H100.401C100.548 9.8 100.675 9.85333 100.781 9.96C100.888 10.0667 100.941 10.1933 100.941 10.34V23.46C100.941 23.6067 100.888 23.7333 100.781 23.84C100.675 23.9467 100.548 24 100.401 24ZM113.501 19.98H107.541V20.08C107.541 20.8933 107.801 21.3 108.321 21.3C108.468 21.3 108.648 21.1933 108.861 20.98C109.075 20.7667 109.308 20.66 109.561 20.66H113.341C113.635 20.66 113.781 20.8067 113.781 21.1C113.781 21.7533 113.288 22.4333 112.301 23.14C111.328 23.8467 110.001 24.2 108.321 24.2C106.655 24.2 105.288 23.7667 104.221 22.9C103.168 22.02 102.641 20.8133 102.641 19.28V18.32C102.641 16.8667 103.181 15.6867 104.261 14.78C105.341 13.86 106.755 13.4 108.501 13.4C110.261 13.4 111.621 13.9133 112.581 14.94C113.555 15.9667 114.041 17.2667 114.041 18.84V19.44C114.041 19.5867 113.988 19.7133 113.881 19.82C113.775 19.9267 113.648 19.98 113.501 19.98ZM109.141 17.4C109.141 16.6 108.875 16.2 108.341 16.2C107.808 16.2 107.541 16.6 107.541 17.4V17.48H109.141V17.4ZM120.114 14.14V14.84C121.048 14.0133 122.088 13.6 123.234 13.6H124.194C124.341 13.6 124.468 13.6533 124.574 13.76C124.681 13.8667 124.734 13.9933 124.734 14.14V17.26C124.734 17.4067 124.681 17.5333 124.574 17.64C124.468 17.7467 124.341 17.8 124.194 17.8H121.614C121.254 17.8 120.968 17.8867 120.754 18.06C120.554 18.22 120.441 18.44 120.414 18.72V23.46C120.414 23.6067 120.361 23.7333 120.254 23.84C120.148 23.9467 120.021 24 119.874 24H116.074C115.928 24 115.801 23.9467 115.694 23.84C115.588 23.7333 115.534 23.6067 115.534 23.46V14.14C115.534 13.9933 115.588 13.8667 115.694 13.76C115.801 13.6533 115.928 13.6 116.074 13.6H119.574C119.721 13.6 119.848 13.6533 119.954 13.76C120.061 13.8667 120.114 13.9933 120.114 14.14Z" fill="white"/>
</svg>
